<svg width="16" height="17" viewBox="0 0 16 17" fill="none" xmlns="http://www.w3.org/2000/svg">
<g clip-path="url(#clip0_29_79)">
<path d="M13.0473 15.1189C12.5141 15.4987 9.09322 13.0915 8.43804 13.0862C7.78286 13.0809 4.32346 15.4328 3.79653 15.0445C3.26961 14.6562 4.50838 10.6681 4.31097 10.0452C4.11356 9.42223 0.801385 6.8682 1.00886 6.2485C1.21638 5.6288 5.40288 5.57124 5.93602 5.19149C6.46917 4.81178 7.88157 0.881479 8.5368 0.886724C9.19193 0.892015 10.5405 4.84453 11.0675 5.23281C11.5944 5.62104 15.7795 5.74601 15.9769 6.36895C16.1743 6.9919 12.8213 9.49228 12.6138 10.112C12.4063 10.7317 13.5804 14.7392 13.0473 15.1189Z" fill="url(#paint0_linear_29_79)"/>
</g>
<defs>
<linearGradient id="paint0_linear_29_79" x1="0.999531" y1="8.02314" x2="15.9853" y2="8.02314" gradientUnits="userSpaceOnUse">
<stop stop-color="#FCD635"/>
<stop offset="1" stop-color="#F7A928"/>
</linearGradient>
<clipPath id="clip0_29_79">
<rect width="16" height="16" fill="white" transform="translate(0 0.163086)"/>
</clipPath>
</defs>
</svg>
